0
SECTION
2
HEADER
9
$ACADVER
1
AC1009
0
ENDSEC
0
SECTION
2
ENTITIES
0
TEXT
8
TEXT
10
20
20
192
30
0
40
4
1
SCARA PICK-AND-PLACE ROBOT - ELECTRICAL / ELECTRONIC CIRCUIT
0
TEXT
8
TEXT
10
20
20
186
30
0
40
2.4
1
ARDUINO MEGA 2560 | 24 V DC MOTOR POWER | 5 V LOGIC | STEP/DIR CONTROL
0
TEXT
8
TEXT
10
20
20
181
30
0
40
2
1
LOW-VOLTAGE CONTROL SCHEMATIC - AC MAINS SECTION INTENTIONALLY OMITTED
0
LINE
8
COMP
10
20
20
145
30
0
11
62
21
145
31
0
0
LINE
8
COMP
10
62
20
145
30
0
11
62
21
166
31
0
0
LINE
8
COMP
10
62
20
166
30
0
11
20
21
166
31
0
0
LINE
8
COMP
10
20
20
166
30
0
11
20
21
145
31
0
0
TEXT
8
TEXT
10
25
20
158
30
0
40
3
1
24 V DC SMPS
0
TEXT
8
TEXT
10
25
20
152
30
0
40
2.2
1
+24V
0
TEXT
8
TEXT
10
45
20
152
30
0
40
2.2
1
0V
0
CIRCLE
8
TERM
10
62
20
160
30
0
40
1.4
0
TEXT
8
TEXT
10
64
20
159.2
30
0
40
1.6
1
+24V
0
CIRCLE
8
TERM
10
62
20
150
30
0
40
1.4
0
TEXT
8
TEXT
10
64
20
149.2
30
0
40
1.6
1
0V
0
LINE
8
WIRE
10
64
20
160
30
0
11
82
21
160
31
0
0
LINE
8
WIRE
10
64
20
150
30
0
11
82
21
150
31
0
0
TEXT
8
TEXT
10
67
20
162.5
30
0
40
1.8
1
+24V MOTOR RAIL
0
TEXT
8
TEXT
10
67
20
147.5
30
0
40
1.8
1
0V / GND
0
LINE
8
COMP
10
82
20
154.8
30
0
11
92
21
154.8
31
0
0
LINE
8
COMP
10
92
20
154.8
30
0
11
92
21
157.2
31
0
0
LINE
8
COMP
10
92
20
157.2
30
0
11
82
21
157.2
31
0
0
LINE
8
COMP
10
82
20
157.2
30
0
11
82
21
154.8
31
0
0
TEXT
8
TEXT
10
84
20
155.3
30
0
40
1.6
1
F1
0
LINE
8
COMP
10
82
20
149.8
30
0
11
92
21
149.8
31
0
0
LINE
8
COMP
10
92
20
149.8
30
0
11
92
21
152.2
31
0
0
LINE
8
COMP
10
92
20
152.2
30
0
11
82
21
152.2
31
0
0
LINE
8
COMP
10
82
20
152.2
30
0
11
82
21
149.8
31
0
0
TEXT
8
TEXT
10
84
20
150.3
30
0
40
1.6
1
F2
0
LINE
8
COMP
10
82
20
144.8
30
0
11
92
21
144.8
31
0
0
LINE
8
COMP
10
92
20
144.8
30
0
11
92
21
147.2
31
0
0
LINE
8
COMP
10
92
20
147.2
30
0
11
82
21
147.2
31
0
0
LINE
8
COMP
10
82
20
147.2
30
0
11
82
21
144.8
31
0
0
TEXT
8
TEXT
10
84
20
145.3
30
0
40
1.6
1
F3
0
LINE
8
WIRE
10
82
20
160
30
0
11
82
21
156
31
0
0
LINE
8
WIRE
10
82
20
156
30
0
11
82
21
146
31
0
0
LINE
8
WIRE
10
92
20
156
30
0
11
105
21
156
31
0
0
LINE
8
WIRE
10
92
20
151
30
0
11
105
21
151
31
0
0
LINE
8
WIRE
10
92
20
146
30
0
11
105
21
146
31
0
0
TEXT
8
TEXT
10
95
20
158
30
0
40
1.5
1
24V BASE
0
TEXT
8
TEXT
10
95
20
153
30
0
40
1.5
1
24V J2
0
TEXT
8
TEXT
10
95
20
148
30
0
40
1.5
1
24V Z
0
LINE
8
COMP
10
25
20
87
30
0
11
78
21
87
31
0
0
LINE
8
COMP
10
78
20
87
30
0
11
78
21
128
31
0
0
LINE
8
COMP
10
78
20
128
30
0
11
25
21
128
31
0
0
LINE
8
COMP
10
25
20
128
30
0
11
25
21
87
31
0
0
TEXT
8
TEXT
10
31
20
122
30
0
40
3
1
ARDUINO MEGA 2560
0
TEXT
8
TEXT
10
29
20
116
30
0
40
2
1
5V
0
TEXT
8
TEXT
10
29
20
112
30
0
40
2
1
GND
0
CIRCLE
8
TERM
10
78
20
117
30
0
40
1.4
0
TEXT
8
TEXT
10
80
20
116.2
30
0
40
1.6
1
D2 BASE_STEP
0
CIRCLE
8
TERM
10
78
20
113
30
0
40
1.4
0
TEXT
8
TEXT
10
80
20
112.2
30
0
40
1.6
1
D5 BASE_DIR
0
CIRCLE
8
TERM
10
78
20
109
30
0
40
1.4
0
TEXT
8
TEXT
10
80
20
108.2
30
0
40
1.6
1
D3 J2_STEP
0
CIRCLE
8
TERM
10
78
20
105
30
0
40
1.4
0
TEXT
8
TEXT
10
80
20
104.2
30
0
40
1.6
1
D6 J2_DIR
0
CIRCLE
8
TERM
10
78
20
101
30
0
40
1.4
0
TEXT
8
TEXT
10
80
20
100.2
30
0
40
1.6
1
D4 Z_STEP
0
CIRCLE
8
TERM
10
78
20
97
30
0
40
1.4
0
TEXT
8
TEXT
10
80
20
96.2
30
0
40
1.6
1
D7 Z_DIR
0
CIRCLE
8
TERM
10
78
20
93
30
0
40
1.4
0
TEXT
8
TEXT
10
80
20
92.2
30
0
40
1.6
1
D22 BASE_LS
0
CIRCLE
8
TERM
10
78
20
90
30
0
40
1.4
0
TEXT
8
TEXT
10
80
20
89.2
30
0
40
1.6
1
D23 J2_LS
0
LINE
8
COMP
10
25
20
57
30
0
11
62
21
57
31
0
0
LINE
8
COMP
10
62
20
57
30
0
11
62
21
74
31
0
0
LINE
8
COMP
10
62
20
74
30
0
11
25
21
74
31
0
0
LINE
8
COMP
10
25
20
74
30
0
11
25
21
57
31
0
0
TEXT
8
TEXT
10
29
20
68
30
0
40
2.3
1
24V -> 5V
0
TEXT
8
TEXT
10
29
20
63
30
0
40
2.3
1
DC-DC BUCK
0
CIRCLE
8
TERM
10
62
20
70
30
0
40
1.4
0
TEXT
8
TEXT
10
64
20
69.2
30
0
40
1.6
1
IN+
0
CIRCLE
8
TERM
10
62
20
60
30
0
40
1.4
0
TEXT
8
TEXT
10
64
20
59.2
30
0
40
1.6
1
IN-
0
CIRCLE
8
TERM
10
25
20
70
30
0
40
1.4
0
TEXT
8
TEXT
10
27
20
69.2
30
0
40
1.6
1
5V
0
CIRCLE
8
TERM
10
25
20
60
30
0
40
1.4
0
TEXT
8
TEXT
10
27
20
59.2
30
0
40
1.6
1
GND
0
LINE
8
WIRE
10
62
20
160
30
0
11
70
21
160
31
0
0
LINE
8
WIRE
10
70
20
160
30
0
11
70
21
70
31
0
0
LINE
8
WIRE
10
70
20
70
30
0
11
62
21
70
31
0
0
LINE
8
WIRE
10
62
20
150
30
0
11
68
21
150
31
0
0
LINE
8
WIRE
10
68
20
150
30
0
11
68
21
60
31
0
0
LINE
8
WIRE
10
68
20
60
30
0
11
62
21
60
31
0
0
LINE
8
WIRE
10
25
20
70
30
0
11
25
21
87
31
0
0
LINE
8
WIRE
10
25
20
60
30
0
11
20
21
60
31
0
0
LINE
8
WIRE
10
20
20
60
30
0
11
20
21
40
31
0
0
TEXT
8
TEXT
10
28
20
77
30
0
40
1.7
1
Logic supply
0
LINE
8
GROUND
10
20
20
40
30
0
11
230
21
40
31
0
0
TEXT
8
TEXT
10
22
20
36
30
0
40
2
1
COMMON GND / 0V
0
LINE
8
WIRE
10
25
20
60
30
0
11
25
21
40
31
0
0
LINE
8
WIRE
10
78
20
87
30
0
11
78
21
40
31
0
0
LINE
8
COMP
10
110
20
145
30
0
11
158
21
145
31
0
0
LINE
8
COMP
10
158
20
145
30
0
11
158
21
170
31
0
0
LINE
8
COMP
10
158
20
170
30
0
11
110
21
170
31
0
0
LINE
8
COMP
10
110
20
170
30
0
11
110
21
145
31
0
0
TEXT
8
TEXT
10
113
20
162
30
0
40
2.7
1
DRIVER 1
0
TEXT
8
TEXT
10
113
20
157
30
0
40
2.2
1
BASE / JOINT 1
0
TEXT
8
TEXT
10
113
20
151
30
0
40
1.8
1
STEP  DIR  EN
0
CIRCLE
8
TERM
10
110
20
166
30
0
40
1.4
0
TEXT
8
TEXT
10
112
20
165.2
30
0
40
1.6
1
+24V
0
CIRCLE
8
TERM
10
110
20
148
30
0
40
1.4
0
TEXT
8
TEXT
10
112
20
147.2
30
0
40
1.6
1
GND
0
CIRCLE
8
TERM
10
110
20
160
30
0
40
1.4
0
TEXT
8
TEXT
10
112
20
159.2
30
0
40
1.6
1
D2
0
CIRCLE
8
TERM
10
110
20
156
30
0
40
1.4
0
TEXT
8
TEXT
10
112
20
155.2
30
0
40
1.6
1
D5
0
TEXT
8
TEXT
10
140
20
165
30
0
40
1.7
1
A+
0
TEXT
8
TEXT
10
140
20
161
30
0
40
1.7
1
A-
0
TEXT
8
TEXT
10
140
20
156
30
0
40
1.7
1
B+
0
TEXT
8
TEXT
10
140
20
152
30
0
40
1.7
1
B-
0
LINE
8
COMP
10
110
20
105
30
0
11
158
21
105
31
0
0
LINE
8
COMP
10
158
20
105
30
0
11
158
21
130
31
0
0
LINE
8
COMP
10
158
20
130
30
0
11
110
21
130
31
0
0
LINE
8
COMP
10
110
20
130
30
0
11
110
21
105
31
0
0
TEXT
8
TEXT
10
113
20
122
30
0
40
2.7
1
DRIVER 2
0
TEXT
8
TEXT
10
113
20
117
30
0
40
2.2
1
JOINT 2
0
TEXT
8
TEXT
10
113
20
111
30
0
40
1.8
1
STEP  DIR  EN
0
CIRCLE
8
TERM
10
110
20
126
30
0
40
1.4
0
TEXT
8
TEXT
10
112
20
125.2
30
0
40
1.6
1
+24V
0
CIRCLE
8
TERM
10
110
20
108
30
0
40
1.4
0
TEXT
8
TEXT
10
112
20
107.2
30
0
40
1.6
1
GND
0
CIRCLE
8
TERM
10
110
20
120
30
0
40
1.4
0
TEXT
8
TEXT
10
112
20
119.2
30
0
40
1.6
1
D3
0
CIRCLE
8
TERM
10
110
20
116
30
0
40
1.4
0
TEXT
8
TEXT
10
112
20
115.2
30
0
40
1.6
1
D6
0
TEXT
8
TEXT
10
140
20
125
30
0
40
1.7
1
A+
0
TEXT
8
TEXT
10
140
20
121
30
0
40
1.7
1
A-
0
TEXT
8
TEXT
10
140
20
116
30
0
40
1.7
1
B+
0
TEXT
8
TEXT
10
140
20
112
30
0
40
1.7
1
B-
0
LINE
8
COMP
10
110
20
65
30
0
11
158
21
65
31
0
0
LINE
8
COMP
10
158
20
65
30
0
11
158
21
90
31
0
0
LINE
8
COMP
10
158
20
90
30
0
11
110
21
90
31
0
0
LINE
8
COMP
10
110
20
90
30
0
11
110
21
65
31
0
0
TEXT
8
TEXT
10
113
20
82
30
0
40
2.7
1
DRIVER 3
0
TEXT
8
TEXT
10
113
20
77
30
0
40
2.2
1
Z-AXIS
0
TEXT
8
TEXT
10
113
20
71
30
0
40
1.8
1
STEP  DIR  EN
0
CIRCLE
8
TERM
10
110
20
86
30
0
40
1.4
0
TEXT
8
TEXT
10
112
20
85.2
30
0
40
1.6
1
+24V
0
CIRCLE
8
TERM
10
110
20
68
30
0
40
1.4
0
TEXT
8
TEXT
10
112
20
67.2
30
0
40
1.6
1
GND
0
CIRCLE
8
TERM
10
110
20
80
30
0
40
1.4
0
TEXT
8
TEXT
10
112
20
79.2
30
0
40
1.6
1
D4
0
CIRCLE
8
TERM
10
110
20
76
30
0
40
1.4
0
TEXT
8
TEXT
10
112
20
75.2
30
0
40
1.6
1
D7
0
TEXT
8
TEXT
10
140
20
85
30
0
40
1.7
1
A+
0
TEXT
8
TEXT
10
140
20
81
30
0
40
1.7
1
A-
0
TEXT
8
TEXT
10
140
20
76
30
0
40
1.7
1
B+
0
TEXT
8
TEXT
10
140
20
72
30
0
40
1.7
1
B-
0
LINE
8
WIRE
10
92
20
166
30
0
11
110
21
166
31
0
0
LINE
8
WIRE
10
92
20
148
30
0
11
110
21
148
31
0
0
LINE
8
WIRE
10
92
20
126
30
0
11
110
21
126
31
0
0
LINE
8
WIRE
10
92
20
108
30
0
11
110
21
108
31
0
0
LINE
8
WIRE
10
92
20
86
30
0
11
110
21
86
31
0
0
LINE
8
WIRE
10
92
20
68
30
0
11
110
21
68
31
0
0
LINE
8
STEP
10
78
20
117
30
0
11
110
21
160
31
0
0
LINE
8
DIR
10
78
20
113
30
0
11
110
21
156
31
0
0
LINE
8
STEP
10
78
20
109
30
0
11
110
21
120
31
0
0
LINE
8
DIR
10
78
20
105
30
0
11
110
21
116
31
0
0
LINE
8
STEP
10
78
20
101
30
0
11
110
21
80
31
0
0
LINE
8
DIR
10
78
20
97
30
0
11
110
21
76
31
0
0
LINE
8
COMP
10
175
20
145
30
0
11
220
21
145
31
0
0
LINE
8
COMP
10
220
20
145
30
0
11
220
21
170
31
0
0
LINE
8
COMP
10
220
20
170
30
0
11
175
21
170
31
0
0
LINE
8
COMP
10
175
20
170
30
0
11
175
21
145
31
0
0
TEXT
8
TEXT
10
179
20
162
30
0
40
2.3
1
M1 NEMA 17
0
TEXT
8
TEXT
10
179
20
155
30
0
40
2
1
BASE
0
CIRCLE
8
TERM
10
175
20
164
30
0
40
1.4
0
TEXT
8
TEXT
10
177
20
163.2
30
0
40
1.6
1
A+
0
CIRCLE
8
TERM
10
175
20
160
30
0
40
1.4
0
TEXT
8
TEXT
10
177
20
159.2
30
0
40
1.6
1
A-
0
CIRCLE
8
TERM
10
175
20
155
30
0
40
1.4
0
TEXT
8
TEXT
10
177
20
154.2
30
0
40
1.6
1
B+
0
CIRCLE
8
TERM
10
175
20
151
30
0
40
1.4
0
TEXT
8
TEXT
10
177
20
150.2
30
0
40
1.6
1
B-
0
LINE
8
MOTOR
10
158
20
165
30
0
11
175
21
164
31
0
0
LINE
8
MOTOR
10
158
20
161
30
0
11
175
21
160
31
0
0
LINE
8
MOTOR
10
158
20
156
30
0
11
175
21
155
31
0
0
LINE
8
MOTOR
10
158
20
152
30
0
11
175
21
151
31
0
0
LINE
8
COMP
10
175
20
105
30
0
11
220
21
105
31
0
0
LINE
8
COMP
10
220
20
105
30
0
11
220
21
130
31
0
0
LINE
8
COMP
10
220
20
130
30
0
11
175
21
130
31
0
0
LINE
8
COMP
10
175
20
130
30
0
11
175
21
105
31
0
0
TEXT
8
TEXT
10
179
20
122
30
0
40
2.3
1
M2 NEMA 17
0
TEXT
8
TEXT
10
179
20
115
30
0
40
2
1
JOINT 2
0
CIRCLE
8
TERM
10
175
20
124
30
0
40
1.4
0
TEXT
8
TEXT
10
177
20
123.2
30
0
40
1.6
1
A+
0
CIRCLE
8
TERM
10
175
20
120
30
0
40
1.4
0
TEXT
8
TEXT
10
177
20
119.2
30
0
40
1.6
1
A-
0
CIRCLE
8
TERM
10
175
20
115
30
0
40
1.4
0
TEXT
8
TEXT
10
177
20
114.2
30
0
40
1.6
1
B+
0
CIRCLE
8
TERM
10
175
20
111
30
0
40
1.4
0
TEXT
8
TEXT
10
177
20
110.2
30
0
40
1.6
1
B-
0
LINE
8
MOTOR
10
158
20
125
30
0
11
175
21
124
31
0
0
LINE
8
MOTOR
10
158
20
121
30
0
11
175
21
120
31
0
0
LINE
8
MOTOR
10
158
20
116
30
0
11
175
21
115
31
0
0
LINE
8
MOTOR
10
158
20
112
30
0
11
175
21
111
31
0
0
LINE
8
COMP
10
175
20
65
30
0
11
220
21
65
31
0
0
LINE
8
COMP
10
220
20
65
30
0
11
220
21
90
31
0
0
LINE
8
COMP
10
220
20
90
30
0
11
175
21
90
31
0
0
LINE
8
COMP
10
175
20
90
30
0
11
175
21
65
31
0
0
TEXT
8
TEXT
10
179
20
82
30
0
40
2.3
1
M3 NEMA 17
0
TEXT
8
TEXT
10
179
20
75
30
0
40
2
1
Z-AXIS
0
CIRCLE
8
TERM
10
175
20
84
30
0
40
1.4
0
TEXT
8
TEXT
10
177
20
83.2
30
0
40
1.6
1
A+
0
CIRCLE
8
TERM
10
175
20
80
30
0
40
1.4
0
TEXT
8
TEXT
10
177
20
79.2
30
0
40
1.6
1
A-
0
CIRCLE
8
TERM
10
175
20
75
30
0
40
1.4
0
TEXT
8
TEXT
10
177
20
74.2
30
0
40
1.6
1
B+
0
CIRCLE
8
TERM
10
175
20
71
30
0
40
1.4
0
TEXT
8
TEXT
10
177
20
70.2
30
0
40
1.6
1
B-
0
LINE
8
MOTOR
10
158
20
85
30
0
11
175
21
84
31
0
0
LINE
8
MOTOR
10
158
20
81
30
0
11
175
21
80
31
0
0
LINE
8
MOTOR
10
158
20
76
30
0
11
175
21
75
31
0
0
LINE
8
MOTOR
10
158
20
72
30
0
11
175
21
71
31
0
0
TEXT
8
TEXT
10
110
20
50
30
0
40
2.5
1
LIMIT SWITCH / END-STOP INPUTS
0
LINE
8
SENSOR
10
110
20
27
30
0
11
118
21
27
31
0
0
LINE
8
SENSOR
10
118
20
27
30
0
11
123
21
30
31
0
0
LINE
8
SENSOR
10
123
20
30
30
0
11
130
21
30
31
0
0
LINE
8
SENSOR
10
130
20
30
30
0
11
130
21
24
31
0
0
LINE
8
SENSOR
10
130
20
24
30
0
11
135
21
24
31
0
0
TEXT
8
TEXT
10
110
20
33
30
0
40
1.9
1
BASE LIMIT
0
TEXT
8
TEXT
10
110
20
20
30
0
40
1.6
1
D22 INPUT_PULLUP
0
TEXT
8
TEXT
10
135
20
24
30
0
40
1.5
1
GND
0
LINE
8
GROUND
10
135
20
24
30
0
11
135
21
40
31
0
0
LINE
8
SENSOR
10
110
20
27
30
0
11
90
21
27
31
0
0
LINE
8
SENSOR
10
90
20
27
30
0
11
90
21
93
31
0
0
LINE
8
SENSOR
10
150
20
27
30
0
11
158
21
27
31
0
0
LINE
8
SENSOR
10
158
20
27
30
0
11
163
21
30
31
0
0
LINE
8
SENSOR
10
163
20
30
30
0
11
170
21
30
31
0
0
LINE
8
SENSOR
10
170
20
30
30
0
11
170
21
24
31
0
0
LINE
8
SENSOR
10
170
20
24
30
0
11
175
21
24
31
0
0
TEXT
8
TEXT
10
150
20
33
30
0
40
1.9
1
JOINT 2 LIMIT
0
TEXT
8
TEXT
10
150
20
20
30
0
40
1.6
1
D23 INPUT_PULLUP
0
TEXT
8
TEXT
10
175
20
24
30
0
40
1.5
1
GND
0
LINE
8
GROUND
10
175
20
24
30
0
11
175
21
40
31
0
0
LINE
8
SENSOR
10
150
20
27
30
0
11
90
21
27
31
0
0
LINE
8
SENSOR
10
90
20
27
30
0
11
90
21
93
31
0
0
LINE
8
SENSOR
10
190
20
27
30
0
11
198
21
27
31
0
0
LINE
8
SENSOR
10
198
20
27
30
0
11
203
21
30
31
0
0
LINE
8
SENSOR
10
203
20
30
30
0
11
210
21
30
31
0
0
LINE
8
SENSOR
10
210
20
30
30
0
11
210
21
24
31
0
0
LINE
8
SENSOR
10
210
20
24
30
0
11
215
21
24
31
0
0
TEXT
8
TEXT
10
190
20
33
30
0
40
1.9
1
Z LIMIT
0
TEXT
8
TEXT
10
190
20
20
30
0
40
1.6
1
D24 INPUT_PULLUP
0
TEXT
8
TEXT
10
215
20
24
30
0
40
1.5
1
GND
0
LINE
8
GROUND
10
215
20
24
30
0
11
215
21
40
31
0
0
LINE
8
SENSOR
10
190
20
27
30
0
11
90
21
27
31
0
0
LINE
8
SENSOR
10
90
20
27
30
0
11
90
21
93
31
0
0
LINE
8
SENSOR
10
90
20
27
30
0
11
90
21
93
31
0
0
LINE
8
SENSOR
10
90
20
27
30
0
11
110
21
27
31
0
0
LINE
8
SENSOR
10
90
20
25
30
0
11
150
21
25
31
0
0
LINE
8
SENSOR
10
90
20
23
30
0
11
190
21
23
31
0
0
LINE
8
SENSOR
10
90
20
93
30
0
11
78
21
93
31
0
0
LINE
8
SENSOR
10
90
20
90
30
0
11
78
21
90
31
0
0
LINE
8
SENSOR
10
90
20
87
30
0
11
78
21
87
31
0
0
TEXT
8
TEXT
10
93
20
29
30
0
40
1.6
1
D22/D23/D24
0
LINE
8
COMP
10
25
20
20
30
0
11
65
21
20
31
0
0
LINE
8
COMP
10
65
20
20
30
0
11
65
21
36
31
0
0
LINE
8
COMP
10
65
20
36
30
0
11
25
21
36
31
0
0
LINE
8
COMP
10
25
20
36
30
0
11
25
21
20
31
0
0
TEXT
8
TEXT
10
29
20
31
30
0
40
2.1
1
OPTIONAL GRIPPER SERVO
0
CIRCLE
8
TERM
10
25
20
32
30
0
40
1.4
0
TEXT
8
TEXT
10
27
20
31.2
30
0
40
1.6
1
+5V
0
CIRCLE
8
TERM
10
25
20
27
30
0
40
1.4
0
TEXT
8
TEXT
10
27
20
26.2
30
0
40
1.6
1
GND
0
CIRCLE
8
TERM
10
65
20
29
30
0
40
1.4
0
TEXT
8
TEXT
10
67
20
28.2
30
0
40
1.6
1
SIGNAL D9
0
LINE
8
WIRE
10
25
20
32
30
0
11
25
21
40
31
0
0
LINE
8
WIRE
10
25
20
27
30
0
11
25
21
40
31
0
0
LINE
8
PWM
10
65
20
29
30
0
11
78
21
29
31
0
0
LINE
8
WIRE
10
78
20
29
30
0
11
78
21
40
31
0
0
TEXT
8
TEXT
10
28
20
18
30
0
40
1.6
1
Use only if your robot has a servo gripper
0
LINE
8
TITLE
10
20
20
5
30
0
11
230
21
5
31
0
0
LINE
8
TITLE
10
230
20
5
30
0
11
230
21
14
31
0
0
LINE
8
TITLE
10
230
20
14
30
0
11
20
21
14
31
0
0
LINE
8
TITLE
10
20
20
14
30
0
11
20
21
5
31
0
0
TEXT
8
TEXT
10
23
20
10
30
0
40
2
1
PROJECT: SCARA ROBOT PICK-AND-PLACE
0
TEXT
8
TEXT
10
100
20
10
30
0
40
2
1
CONTROLLER: ARDUINO MEGA 2560
0
TEXT
8
TEXT
10
175
20
10
30
0
40
2
1
DRAWING: ECE ELECTRICAL CIRCUIT
0
TEXT
8
TEXT
10
20
20
2
30
0
40
1.5
1
NOTES: Verify driver model, microstepping, motor coil pairs, current limit, and all pin assignments against the actual hardware before energizing.
0
ENDSEC
0
EOF
